
      <svg data-logo="logo" xmlns="http://www.w3.org/2000/svg" viewBox="0 0 191 43">
        <g id="logogram" transform="translate(0, 1) rotate(0) "><path fill-rule="evenodd" clip-rule="evenodd" d="M9.00537 3.67782C7.57471 4.67818 6.28101 5.86093 5.15796 7.19235C9.74726 6.76628 15.5778 7.462 22.347 10.8466C29.5756 14.4608 35.3964 14.583 39.4474 13.8016C39.0798 12.6887 38.617 11.6191 38.0689 10.6023C33.4316 11.0914 27.4866 10.444 20.5582 6.97993C16.1586 4.78013 12.2804 3.87396 9.00537 3.67782ZM35.36 6.7466C31.6979 2.65495 26.376 0.0799561 20.4526 0.0799561C18.7131 0.0799561 17.0253 0.302063 15.4163 0.719436C17.5955 1.31404 19.9105 2.18394 22.347 3.40222C27.4196 5.93848 31.799 6.75511 35.36 6.7466ZM40.3135 17.708C35.4195 18.6744 28.6614 18.4759 20.5582 14.4243C12.9826 10.6365 6.95307 10.6842 2.88654 11.5879C2.67664 11.6345 2.47168 11.6835 2.27167 11.7345C1.73926 12.8924 1.31427 14.11 1.00934 15.3744C1.33502 15.2874 1.67157 15.2047 2.0188 15.1275C6.95221 14.0312 13.9227 14.0788 22.347 18.291C29.9227 22.0788 35.9522 22.0311 40.0188 21.1274C40.1581 21.0965 40.2954 21.0645 40.4304 21.0315C40.4452 20.7162 40.4526 20.3989 40.4526 20.0799C40.4526 19.2774 40.4054 18.4859 40.3135 17.708ZM39.7774 25.2522C34.9309 26.0995 28.3696 25.7743 20.5582 21.8687C12.9826 18.0809 6.95307 18.1286 2.88654 19.0323C1.98389 19.2328 1.17188 19.4771 0.455567 19.735C0.453614 19.8497 0.452637 19.9647 0.452637 20.0799C0.452637 31.1256 9.40693 40.0799 20.4526 40.0799C29.7097 40.0799 37.4979 33.7908 39.7774 25.2522Z" fill="#7F57F1"/></g>
        <g id="logotype" transform="translate(47, 8.5)"><path fill="#111111" d="M13.91 26L8.59 26L8.59 1.15L25.74 1.15L25.74 5.63L10.97 5.63L13.91 2.58L13.91 13.96L10.97 11.65L25.11 11.65L25.11 16.06L10.97 16.06L13.91 13.75L13.91 26ZM35.72 26L32.60 26Q30.29 26 29.00 24.84Q27.70 23.69 27.70 21.10L27.70 21.10L27.70 1.15L32.95 1.15L32.95 20.54Q32.95 21.38 33.34 21.73Q33.72 22.08 34.45 22.08L34.45 22.08L35.72 22.08L35.72 26ZM45.76 26.42L45.76 26.42Q42.89 26.42 40.76 25.21Q38.62 24.00 37.43 21.80Q36.24 19.59 36.24 16.62L36.24 16.62Q36.24 13.64 37.43 11.46Q38.62 9.27 40.76 8.04Q42.89 6.82 45.76 6.82L45.76 6.82Q48.63 6.82 50.77 8.04Q52.90 9.27 54.09 11.46Q55.28 13.64 55.28 16.62L55.28 16.62Q55.28 19.59 54.09 21.80Q52.90 24.00 50.77 25.21Q48.63 26.42 45.76 26.42ZM45.76 22.39L45.76 22.39Q47.72 22.39 48.80 20.87Q49.89 19.35 49.89 16.62L49.89 16.62Q49.89 13.89 48.80 12.37Q47.72 10.84 45.76 10.84L45.76 10.84Q43.80 10.84 42.72 12.37Q41.63 13.89 41.63 16.62L41.63 16.62Q41.63 19.35 42.72 20.87Q43.80 22.39 45.76 22.39ZM65.89 26L60.81 26L55.25 7.24L60.53 7.24L63.75 19.95L67.22 7.24L71.49 7.24L74.95 19.95L78.21 7.24L83.49 7.24L77.93 26L72.82 26L69.35 14.27L65.89 26ZM90.39 26L85.14 26L85.14 7.24L90.39 7.24L90.39 26ZM90.46 4.93L85.03 4.93L85.03 0.73L90.46 0.73L90.46 4.93ZM102.01 26.42L102.01 26.42Q99.14 26.42 97.02 25.21Q94.90 24.00 93.73 21.80Q92.56 19.59 92.56 16.62L92.56 16.62Q92.56 13.64 93.73 11.46Q94.90 9.27 97.00 8.04Q99.10 6.82 101.97 6.82L101.97 6.82Q104.77 6.82 106.84 8.04Q108.90 9.27 110.04 11.54Q111.18 13.82 111.18 16.97L111.18 16.97L111.18 18.02L97.98 18.02Q98.09 20.26 99.19 21.34Q100.29 22.43 102.11 22.43L102.11 22.43Q103.44 22.43 104.33 21.87Q105.23 21.31 105.61 20.16L105.61 20.16L110.90 20.47Q110.16 23.27 107.78 24.84Q105.40 26.42 102.01 26.42ZM97.98 14.80L97.98 14.80L105.79 14.80Q105.68 12.73 104.65 11.72Q103.62 10.70 101.97 10.70L101.97 10.70Q100.33 10.70 99.26 11.77Q98.19 12.84 97.98 14.80ZM117.20 26L111.70 26L120.66 1.15L126.96 1.15L135.92 26L130.39 26L128.57 20.71L119.02 20.71L117.20 26ZM123.81 6.75L120.52 16.34L127.10 16.34L123.81 6.75ZM142.54 26L137.22 26L137.22 1.15L142.54 1.15L142.54 26Z"/></g>
        
      </svg>
    